<?xml version="1.0" encoding="UTF-8"?><svg id="Layer_2" xmlns="http://www.w3.org/2000/svg" viewBox="0 0 341.53 64.14"><defs><style>.cls-1{fill:#593625;}.cls-2{fill:#556949;}.cls-3{fill:#7a8668;}.cls-4{fill:#7babd4;}</style></defs><g id="Layer_1-2"><path class="cls-2" d="M147.08,32.45s-2.3-3.26-1.59-4.29,3.81-.79,3.81-.79c0,0-.77-2.44,0-3.18s4.45-.16,4.45-.16c0,0,1.14-1.36,2.05-1.9s3.45,1.32,3.45,1.32c0,0,2.14-.55,3.09,0s1.58,1.67,1.58,1.67c0,0,1.29-1.44,2.92-.41,1.63,1.03,2.01,3.29,2.01,3.29,0,0,1.03-.66,1.64.48s0,2.58,0,2.58v1.39h-23.41Z"/><rect class="cls-3" y="29.5" width="341.53" height="34.65"/><g id="Group_26"><path id="Path_26" class="cls-1" d="M76.05,28.56l4.13-8.44-2.88-5.86-3.14-1.41v-1.98l-1.15-.73h-2.17l-5.34-1.52-4.46-1.74,4.01-.73v-1.13h-1.99l1.99-.92h5.79l2.17,1.44,3.54,3.06-1.83.97,1.01,1.5v1.42l2.87,1.34.71,1.73,1.45,2.02,1,2.06-2.85,8.89h-2.85Z"/><path id="Path_28" class="cls-1" d="M80.35,18.14l1.41-1.6-1.85-4.1-2.82-.96-1.95.61v-1.12l1.95-.6,2.19.6,1.46,1.12,1.54.67.87,4.62-2.07,1.74-.73-.97Z"/><path id="Path_29" class="cls-1" d="M82.06,13.26l2.94-.97v-.91l2.37-.83,1.03-.31-.74-.87-2.11-.8-4.59-1.5-.67,1.5h-3.92l-4.92-3.28,1.76-.65h2.22l-1.45-1.79h2.39l2.69-1.24.35-1.61,6.76,4.11,7.56,2.09-2.1,1.86,3.81,1.32-1.71,1.17-3.73-1.17-.33,1.17-2.29.83-1.52.91-1.22,1.42h-2.86l.29-.46Z"/><path id="Path_30" class="cls-1" d="M81.75,12.68l.45-1.08v-1.4l4.41-1.85,1.27,1.04-3.87.81-1.24,1.68v1.62l-1.02-.83Z"/><path id="Path_31" class="cls-1" d="M79.47,10.94l2.62-1.97-2.11-3.29-3.78,1.52,2.53,1.76.36.97-1.17,1.01h1.55Z"/></g><g id="Group_26-2"><path id="Path_26-2" class="cls-2" d="M73.01,10.14h-2.17l-5.34-1.52-4.46-1.74,4.01-.73v-1.13h-1.99l1.99-.92h5.79l2.17,1.44,3.54,3.06-1.83.97-1.71.55Z"/><path id="Path_29-2" class="cls-2" d="M88.4,10.25l-.74-.87-2.11-.8-4.59-1.5-.67,1.5h-3.92l-4.92-3.28,1.76-.65h2.22l-1.45-1.79h2.39l2.69-1.24.35-1.61,6.76,4.11,7.56,2.09-2.1,1.86,3.81,1.32-1.71,1.17-3.73-1.17-.33,1.17-1.26-.31Z"/></g><path class="cls-2" d="M85.2,34.09s1.77-2.96,1.22-3.89-2.93-.72-2.93-.72c0,0,.59-2.21,0-2.88s-3.42-.14-3.42-.14c0,0-.87-1.23-1.57-1.72s-2.65,1.2-2.65,1.2c0,0-1.65-.5-2.37,0s-1.21,1.52-1.21,1.52c0,0-.99-1.3-2.25-.37s-1.55,2.99-1.55,2.99c0,0-.79-.6-1.26.43-.47,1.03,0,2.34,0,2.34v1.27h17.99Z"/><path class="cls-2" d="M79.25,32.86s1.77-2.96,1.22-3.89-2.93-.72-2.93-.72c0,0,.59-2.21,0-2.88s-3.42-.14-3.42-.14c0,0-.87-1.23-1.57-1.72s-2.65,1.2-2.65,1.2c0,0-1.65-.5-2.37,0s-1.21,1.52-1.21,1.52c0,0-.99-1.3-2.25-.37s-1.55,2.99-1.55,2.99c0,0-.79-.6-1.26.43-.47,1.03,0,2.34,0,2.34v1.27h17.99Z"/><path class="cls-2" d="M122.25,33.89s1.77-2.96,1.22-3.89-2.93-.72-2.93-.72c0,0,.59-2.21,0-2.88s-3.42-.14-3.42-.14c0,0-.87-1.23-1.57-1.72s-2.65,1.2-2.65,1.2c0,0-1.65-.5-2.37,0s-1.43.7-1.43.7c0,0-.78-.48-2.03.45-1.25.93-1.55,2.99-1.55,2.99,0,0-.79-.6-1.26.43-.47,1.03,0,2.34,0,2.34v1.27h17.99Z"/><path class="cls-2" d="M113.01,33.74s3.21-3.37,2.22-4.42c-1-1.06-5.32-.82-5.32-.82,0,0-.32-2.67-1.4-3.43s-4.81,0-4.81,0c0,0-1.59-1.4-2.86-1.96s-4.81,1.36-4.81,1.36c0,0-2.99-.57-4.31,0s-2.2,1.73-2.2,1.73c0,0-1.8-1.48-4.08-.42-2.28,1.06-2.81,3.39-2.81,3.39,0,0-1.43-.68-2.29.49-.86,1.17,0,2.66,0,2.66v1.44h32.66Z"/><path class="cls-2" d="M119.08,28.57c-.84.11-2.09.27-3.66.4-.35.03-.57.04-.66.05-1.1.09-2.84.44-5.65,1.59.16.73-2.47,6.77-2.31,7.5l10.32-5.68,2.47-2.11-.5-1.75Z"/><path class="cls-2" d="M68.57,35.48s2.86-3.7,1.97-4.86-4.74-.9-4.74-.9c0,0,.96-2.76,0-3.6s-5.53-.18-5.53-.18c0,0-1.41-1.54-2.54-2.15-1.13-.61-4.28,1.49-4.28,1.49,0,0-2.66-.62-3.84,0s-1.96,1.9-1.96,1.9c0,0-2.2-3.69-4.23-2.53s-1.9,5.8-1.9,5.8c0,0-1.28-.74-2.04.54s0,2.92,0,2.92l3.29,8.07,25.8-6.49Z"/><path class="cls-4" d="M115.42,28.97s-5.24.22-5.9,4.08c-.66,3.86,2.52,11.79,10.14,14.97,7.62,3.17-61.26,24.12-80.94,8.25-2.46-1.98-3.02-3.63-3.05-4.93-.26-10,22.1-17,38.99-19.2,16.88-2.2,24.01-2.51,27.17-2.64s7.78-.53,13.6-.53Z"/><path class="cls-2" d="M47.95,45.19s1.74-4.08.75-5.51-3.85-1.58-3.85-1.58c0,0,1.08-3.4,0-4.43-1.08-1.03-6.2-.22-6.2-.22,0,0-1.58-1.89-2.85-2.65-1.27-.75-4.8,1.84-4.8,1.84,0,0-2.98-.77-4.3,0s-2.2,2.33-2.2,2.33c0,0-1.8-2-4.07-.57s-2.8,4.58-2.8,4.58c0,0-1.43-.91-2.29.66-.86,1.58,0,3.59,0,3.59v1.94h32.61Z"/><path class="cls-2" d="M47.95,36.22s1.74-4.08.75-5.51-3.85-1.58-3.85-1.58c0,0,1.08-3.4,0-4.43-1.08-1.03-6.2-.22-6.2-.22,0,0-1.58-1.89-2.85-2.65-1.27-.75-4.8,1.84-4.8,1.84,0,0-2.98-.77-4.3,0s-2.2,2.33-2.2,2.33c0,0-1.8-2-4.07-.57s-2.92,3.79-2.92,3.79c0,0-1.43-.91-2.29.66-.86,1.58.12,4.39.12,4.39v1.94h32.61Z"/><path class="cls-2" d="M45.94,40.08s1.74-4.08.75-5.51c-.99-1.43-3.85-1.58-3.85-1.58,0,0,1.08-3.4,0-4.43-1.08-1.03-6.2-.22-6.2-.22,0,0-1.58-1.89-2.85-2.65-1.27-.75-4.8,1.84-4.8,1.84,0,0-2.98-.77-4.3,0-1.32.77-2.2,2.33-2.2,2.33,0,0-1.8-2-4.07-.57-2.27,1.43-2.8,4.58-2.8,4.58,0,0-1.43-.91-2.29.66-.86,1.58,0,3.59,0,3.59.04.23.17.82.66,1.35.42.45.9.64,1.13.71,10.27-.04,20.54-.08,30.82-.12Z"/><path class="cls-2" d="M101.15,42.12s-2.38-3.38-1.64-4.44,3.95-.82,3.95-.82c0,0-.8-2.52,0-3.29s4.6-.16,4.6-.16c0,0,1.18-1.41,2.12-1.97s3.57,1.36,3.57,1.36c0,0,2.22-.57,3.19,0s1.63,1.73,1.63,1.73c0,0,1.34-1.49,3.03-.42,1.69,1.06,2.08,3.41,2.08,3.41,0,0,1.06-.68,1.7.49.64,1.17,0,2.67,0,2.67v1.44h-24.22Z"/><path class="cls-2" d="M140.94,46.36s3.21-4.55,2.21-5.98c-.99-1.43-5.31-1.11-5.31-1.11,0,0,1.08-3.4,0-4.43-1.08-1.03-6.2-.22-6.2-.22,0,0-1.58-1.89-2.85-2.65-1.27-.75-4.8,1.84-4.8,1.84,0,0-2.98-.77-4.3,0-1.32.77-2.2,2.33-2.2,2.33,0,0-1.8-2-4.07-.57-2.27,1.43-2.8,4.58-2.8,4.58,0,0-1.43-.91-2.29.66-.86,1.58,0,3.59,0,3.59v1.94h32.61Z"/><path class="cls-2" d="M112.49,54.39s3.9-5.53,2.69-7.27-6.46-1.35-6.46-1.35c0,0,1.31-4.13,0-5.39s-7.54-.27-7.54-.27c0,0-1.93-2.3-3.47-3.22s-5.84,2.23-5.84,2.23c0,0-3.63-.93-5.23,0-1.6.93-2.67,2.84-2.67,2.84,0,0-2.19-2.43-4.96-.69s-3.41,5.58-3.41,5.58c0,0-5.31-4.88-6.35-2.96s-9.72,1.27-9.72,1.27l-6.88,14.59,59.85-5.36Z"/><path class="cls-2" d="M145.79,57.21s2.49-8.36,1.28-10.1c-1.21-1.74-6.46-1.35-6.46-1.35,0,0,1.31-4.13,0-5.39s-7.54-.27-7.54-.27c0,0-1.93-2.3-3.47-3.22s-5.84,2.23-5.84,2.23c0,0-3.63-.93-5.23,0-1.6.93-2.67,2.84-2.67,2.84,0,0-2.19-2.43-4.96-.69s-3.41,5.58-3.41,5.58c0,0-1.74-1.11-2.78.81s0,4.37,0,4.37l-31.73,5.92,72.83-.72Z"/><path class="cls-2" d="M43.98,50s-3.56-5.04-2.46-6.63c1.1-1.59,5.89-1.23,5.89-1.23,0,0-1.2-3.77,0-4.91,1.2-1.14,6.6-.72,6.6-.72,0,0,2.04-1.63,3.44-2.46,1.4-.84,5.33,2.04,5.33,2.04,0,0,3.31-.85,4.77,0,1.46.85,2.44,2.58,2.44,2.58,0,0,2-2.22,4.52-.63s3.11,5.09,3.11,5.09c0,0,1.59-1.01,2.54.74s0,3.98,0,3.98v2.15h-36.17Z"/><path class="cls-2" d="M130.04,34.82s2.2-3.11,1.51-4.09-3.64-.76-3.64-.76c0,0,.74-2.32,0-3.03s-4.24-.15-4.24-.15c0,0-1.08-1.29-1.95-1.81-.87-.52-3.29,1.26-3.29,1.26,0,0-2.04-.53-2.94,0s-1.5,1.59-1.5,1.59c0,0-1.23-1.37-2.79-.39-1.56.98-1.92,3.14-1.92,3.14,0,0-.98-.63-1.56.45s0,2.46,0,2.46v1.33h22.32Z"/><path class="cls-2" d="M201.67,35.42s-2.69-6.36-2.16-7.98c1.2-3.69,3.63-3.95,3.63-3.95,0,0-1.05-3.31,0-4.31s6.04-.22,6.04-.22c0,0,1.54-1.84,2.78-2.58s4.68,1.79,4.68,1.79c0,0,2.91-.75,4.19,0s2.14,2.27,2.14,2.27c0,0,1.75-1.95,3.97-.56,2.22,1.39,2.73,4.47,2.73,4.47,0,0,1.39-.89,2.23.65s0,3.5,0,3.5v1.89l-30.22,5.03Z"/><path class="cls-2" d="M174.87,46.89s-3.44-4.88-2.37-6.41c1.07-1.53,5.7-1.19,5.7-1.19,0,0-1.16-3.64,0-4.75,1.16-1.11,6.65-.24,6.65-.24,0,0,1.7-2.03,3.06-2.84s5.15,1.97,5.15,1.97c0,0,3.2-.82,4.61,0,1.41.82,2.36,2.5,2.36,2.5,0,0,1.93-2.14,4.37-.61,2.44,1.53,3.01,4.92,3.01,4.92,0,0,1.53-.98,2.45.71s0,3.85,0,3.85v2.08h-34.97Z"/><path class="cls-2" d="M169.35,58.02s-3.54-8.43-2.47-9.96c1.07-1.53,9.14-2.87,9.14-2.87,0,0-1.16-3.64,0-4.75,1.16-1.11,6.65-.24,6.65-.24,0,0,1.7-2.03,3.06-2.84s5.15,1.97,5.15,1.97c0,0,3.2-.82,4.61,0,1.41.82,2.36,2.5,2.36,2.5,0,0,1.93-2.14,4.37-.61,2.44,1.53,3.01,4.92,3.01,4.92,0,0,8-1.69,8.92,0s-2.09,12.54-2.09,12.54l-42.7-.67Z"/></g></svg>